Coordinates
version=1
nRows=13
nColumns=40
inDegrees=yes

Units are S.I. units (second, meters, Newtons, ...)
Angles are in degrees.

endheader
time	pelvis_tilt	pelvis_list	pelvis_rotation	pelvis_tx	pelvis_ty	pelvis_tz	hip_flexion_r	hip_adduction_r	hip_rotation_r	knee_angle_r	knee_angle_r_beta	ankle_angle_r	subtalar_angle_r	mtp_angle_r	hip_flexion_l	hip_adduction_l	hip_rotation_l	knee_angle_l	knee_angle_l_beta	ankle_angle_l	subtalar_angle_l	mtp_angle_l	lumbar_extension	lumbar_bending	lumbar_rotation	arm_flex_r	arm_add_r	arm_rot_r	elbow_flex_r	pro_sup_r	wrist_flex_r	wrist_dev_r	arm_flex_l	arm_add_l	arm_rot_l	elbow_flex_l	pro_sup_l	wrist_flex_l	wrist_dev_l
      0.00000000	     -3.75748105	     -7.24345899	     10.34481067	     -1.44645826	      0.88322522	      1.37987700	     33.59435285	     -1.95105395	    -18.26308285	    -31.54900529	     -0.55063402	     -0.36693206	     -4.94089152	      5.27841471	     -4.89325802	      6.80087324	     13.71809586	    -14.56946956	     -0.25428521	     21.66233011	    -13.36900435	     19.85575957	    -10.13066606	      8.17175599	     -4.13229955	      7.66153735	     -9.94097052	      7.87335368	     13.01751883	     89.95437384	      0.00000000	      0.00000000	     11.57018346	      8.62791573	    -56.76024794	     16.94913716	     89.95437384	      0.00000000	      0.00000000
      0.01000000	     -3.58934458	     -7.27525310	     10.18921442	     -1.44013901	      0.88208233	      1.38041108	     33.68971822	     -1.88550377	    -18.55301465	    -30.09871098	     -0.52532161	     -0.56768929	     -4.50636703	      5.49496769	     -5.43305346	      6.94999436	     13.62551102	    -14.78863755	     -0.25811042	     21.89737940	    -13.17505935	     19.80447769	    -10.37782940	      8.35891139	     -4.29809716	      7.51406341	     -9.99102614	      7.60721677	     12.32415429	     89.95437384	      0.00000000	      0.00000000	     12.45769441	      8.71181214	    -58.27808139	     17.39678926	     89.95437384	      0.00000000	      0.00000000
      0.02000000	     -3.60746653	     -7.11977731	     10.06146963	     -1.43372540	      0.88058745	      1.38071327	     33.97704382	     -2.09380541	    -18.75370050	    -28.81191716	     -0.50286282	     -0.59267700	     -4.20306502	      5.55137576	     -5.85702395	      6.83419984	     13.51670397	    -14.89143921	     -0.25990464	     22.02395101	    -13.03201589	     19.62727808	    -10.40861738	      8.33230172	     -4.47582788	      7.27247372	    -10.07128435	      7.49573968	     11.71204864	     89.95437384	      0.00000000	      0.00000000	     13.23626705	      8.74339629	    -58.80736481	     17.87920032	     89.95437384	      0.00000000	      0.00000000
      0.03000000	     -3.72020841	     -6.91737935	      9.86843208	     -1.42704805	      0.87876094	      1.38120762	     34.49810488	     -2.40869707	    -19.08389421	    -27.94085181	     -0.48765986	     -0.40673382	     -4.19025011	      5.53810880	     -6.20030141	      6.66753517	     13.49371187	    -14.99982714	     -0.26179637	     22.14275374	    -12.90247230	     19.39506442	    -10.31620339	      8.18651150	     -4.47434194	      6.83187660	    -10.20959535	      7.45317411	     11.35814704	     89.95437384	      0.00000000	      0.00000000	     13.92959035	      8.74307937	    -58.67304530	     18.39883068	     89.95437384	      0.00000000	      0.00000000
      0.04000000	     -3.63075011	     -7.01532407	      9.90951053	     -1.42037023	      0.87757481	      1.38162073	     34.49839714	     -2.42898408	    -19.83322389	    -26.54257129	     -0.46325526	     -0.46025305	     -4.01408942	      5.58893742	     -6.72722003	      6.90669921	     13.19016609	    -15.00130835	     -0.26182222	     22.30802888	    -12.67135623	     19.21697688	    -10.46288911	      8.49470503	     -4.87675303	      6.73510117	    -10.24784385	      7.15619036	     10.80207696	     89.95437384	      0.00000000	      0.00000000	     14.78731154	      9.05520796	    -60.08003226	     19.28521885	     89.95437384	      0.00000000	      0.00000000
      0.05000000	     -3.82273666	     -6.78554690	      9.68979925	     -1.41345738	      0.87580099	      1.38212109	     35.07277076	     -2.78810087	    -20.31515035	    -25.88824193	     -0.45183506	     -0.27771127	     -4.08758922	      5.56251658	     -7.03513911	      6.69893563	     13.16807523	    -15.09703003	     -0.26349288	     22.28645275	    -12.54578228	     18.98553092	    -10.30052990	      8.33848122	     -4.80741945	      6.27566478	    -10.43715360	      7.09437533	     10.54887586	     89.95437384	      0.00000000	      0.00000000	     15.51348286	      8.98931455	    -59.91969146	     19.74816979	     89.95437384	      0.00000000	      0.00000000
      0.06000000	     -3.75069045	     -6.80464126	      9.77700010	     -1.40620447	      0.87454438	      1.38257079	     35.13777816	     -2.91798483	    -21.18008070	    -24.92376702	     -0.43500180	     -0.34465962	     -4.23963297	      5.56501440	     -7.55707934	      6.87049516	     12.65892523	    -15.18319777	     -0.26499679	     22.23572854	    -12.42188532	     18.60167360	    -10.40567446	      8.54479716	     -5.04366210	      5.96516771	    -10.51545703	      6.60177900	     10.33405082	     89.95437384	      0.00000000	      0.00000000	     16.24736545	      9.25891388	    -59.91920283	     20.75552244	     89.95437384	      0.00000000	      0.00000000
      0.07000000	     -3.73748383	     -6.76286243	     10.03273469	     -1.39909119	      0.87320500	      1.38274818	     35.31669148	     -3.22866457	    -22.10101639	    -24.27350346	     -0.42365256	     -0.36447328	     -4.52864654	      5.56156222	     -7.95769821	      7.02322781	     12.23049350	    -15.28256346	     -0.26673105	     22.07773552	    -12.38365854	     18.21576582	    -10.38009463	      8.68570878	     -5.43670010	      5.64436140	    -10.59144600	      6.25129042	     10.11359809	     89.95437384	      0.00000000	      0.00000000	     17.04309490	      9.38668977	    -59.61068953	     21.45087425	     89.95437384	      0.00000000	      0.00000000
      0.08000000	     -3.95035958	     -6.59857995	      9.86294607	     -1.39149074	      0.87172657	      1.38335073	     35.78620904	     -3.45433734	    -22.54362343	    -23.88571597	     -0.41688439	     -0.29604846	     -4.59242015	      5.51918147	     -8.23605757	      6.92017011	     12.12759522	    -15.41743715	     -0.26908504	     21.91917924	    -12.22834848	     17.91054420	    -10.22505943	      8.61031003	     -5.29447476	      5.16337382	    -10.76869151	      6.15259888	     10.01887910	     89.95437384	      0.00000000	      0.00000000	     17.76571680	      9.40061825	    -58.99073539	     22.10412994	     89.95437384	      0.00000000	      0.00000000
      0.09000000	     -3.70410204	     -6.84984503	     10.14539648	     -1.38317493	      0.87102637	      1.38373375	     35.49727088	     -3.35125095	    -23.52640452	    -23.23396500	     -0.40550919	     -0.65145302	     -4.65217718	      5.49705659	     -8.93189674	      7.44978437	     11.64986864	    -15.45344386	     -0.26971348	     21.60915103	    -12.12911570	     17.20231206	    -10.39038140	      9.14210879	     -5.78167115	      4.97911964	    -10.80219501	      5.39058692	      9.81240688	     89.95437384	      0.00000000	      0.00000000	     18.07027093	      9.54714114	    -56.55470453	     23.18935164	     89.95437384	      0.00000000	      0.00000000
      0.10000000	     -3.91539487	     -6.73508832	     10.08947483	     -1.37494218	      0.86977760	      1.38438455	     35.86910065	     -3.49985777	    -23.55384773	    -23.09377603	     -0.40306243	     -0.66834526	     -4.57547170	      5.41699597	     -9.17941935	      7.44867798	     11.41732413	    -15.59968275	     -0.27226583	     21.33499227	    -11.96330449	     16.82186139	    -10.15446244	      9.13149047	     -5.67212696	      4.44424681	    -10.94160730	      5.26309249	      9.83974015	     89.95437384	      0.00000000	      0.00000000	     18.69772023	      9.56523344	    -55.58739767	     23.94568072	     89.95437384	      0.00000000	      0.00000000
      0.11000000	     -3.58636575	     -6.80377931	     10.22212852	     -1.36608452	      0.86970623	      1.38479079	     35.46501712	     -3.34677289	    -23.47598785	    -22.84710526	     -0.39875721	     -0.93637334	     -4.34416878	      5.21934452	    -10.21301554	      7.71551322	     11.09578945	    -15.26788501	     -0.26647486	     20.56122080	    -11.84949263	     15.64361927	    -10.47330182	      9.48751966	     -6.02187995	      4.41001973	    -10.92943558	      4.31659277	      9.55561984	     89.95437384	      0.00000000	      0.00000000	     18.44399675	      9.28906337	    -50.23294659	     24.85188906	     89.95437384	      0.00000000	      0.00000000
      0.12000000	     -3.61285617	     -6.78990911	     10.29201663	     -1.35712753	      0.86903617	      1.38551803	     35.53131233	     -3.29854337	    -23.05569010	    -22.98242032	     -0.40111890	     -1.08792146	     -4.17810899	      4.95378792	    -10.57225704	      7.88359984	     10.87304004	    -15.57620791	     -0.27185611	     19.82499662	    -11.47974384	     14.32093156	    -10.38191776	      9.61154841	     -6.12658937	      4.08949130	    -10.95296359	      3.90883465	      9.43912303	     89.95437384	      0.00000000	      0.00000000	     18.34839849	      9.40507829	    -46.89709824	     26.34033193	     89.95437384	      0.00000000	      0.00000000
